<svg xmlns="http://www.w3.org/2000/svg" width="62" height="62" viewBox="0 0 62 62">
    <defs>
        <style>
            .cls-1{fill:#fff}
        </style>
    </defs>
    <g id="rocket" transform="translate(-1 -1)">
        <path id="Path_8592" d="M45 43.531V22a11.829 11.829 0 0 0-1.686-6.087l-1.457-2.428A1 1 0 0 0 41 13h-4a1 1 0 0 0-.857.485l-1.457 2.428a11.823 11.823 0 0 0-1.624 5.169A6.906 6.906 0 0 0 32 21v-3a41.856 41.856 0 0 0-1.766-12.034l-.126-.422a6.376 6.376 0 0 0-12.215 0l-.126.422a41.811 41.811 0 0 0-1.734 11.166A4 4 0 0 0 13 21v10.421a4.993 4.993 0 0 0-6.927 3.725A4 4 0 1 0 5 43h8v5.531l-5.64 4.7A1 1 0 0 0 7 54v4a1 1 0 0 0 1 1h15v3a1 1 0 0 0 1 1h16a1 1 0 0 0 1-1v-3h15a1 1 0 0 0 1-1v-4a1 1 0 0 0-.36-.769zM19 27h-4v-2h4zm1.362 18H25v8H10.762zM26 43h-1v-4.26a33.874 33.874 0 0 1 .9-7.74h12.2c.155.662.286 1.33.4 2H32a1 1 0 0 0-1 1v4a1 1 0 0 0 1 1h7v4h-1a1 1 0 0 0-1 1v11H27V44a1 1 0 0 0-1-1zm17 0h-2v-4.26a35.864 35.864 0 0 0-2.586-13.4c-.048-.12-.114-.227-.168-.343H43zm-4.047-6H33v-2h5.787c.073.664.132 1.33.166 2zM39 45h4.638l9.6 8H39zm-2.6-28.058L37.566 15h2.867l1.167 1.942A9.8 9.8 0 0 1 42.511 19h-7.023a9.873 9.873 0 0 1 .912-2.058zM35.068 21h7.864A9.8 9.8 0 0 1 43 22v1h-6.151a6.852 6.852 0 0 0-1.828-1.31q.01-.347.047-.69zm1.5 5.113c.38.951.712 1.914 1 2.887H26.429q.441-1.472 1.014-2.915a4.908 4.908 0 0 1 9.125.028zm-10.993-.742A35.828 35.828 0 0 0 23 38.74V43h-2V21a4 4 0 0 0-2.969-3.848c.015-.718.031-1.436.085-2.152h11.768c.075 1 .116 2 .116 3v3.3a6.892 6.892 0 0 0-4.425 4.075zM29.664 13H18.336c.085-.67.191-1.335.31-2h10.71c.117.665.224 1.33.308 2zm-9.982-6.46l.126-.422a4.376 4.376 0 0 1 8.383 0l.126.422c.244.813.45 1.635.641 2.46h-9.919c.193-.825.399-1.647.643-2.46zM17 19a2 2 0 0 1 2 2v2h-4v-2a2 2 0 0 1 2-2zM5 41a2 2 0 1 1 1.4-3.427 1 1 0 0 0 1.677-.927A2.982 2.982 0 0 1 13 33.787V41zm10-12h4v14.531l-4 3.333zM9 55h16v2H9zm30 6H25v-2h1a1 1 0 0 0 1-1v-1h10v1a1 1 0 0 0 1 1h1zm0-4v-2h16v2z" class="cls-1" data-name="Path 8592"/>
        <path id="Path_8593" d="M59 5a4 4 0 0 0-1.073.146 5 5 0 0 0-9.854 0A4 4 0 1 0 47 13h12a4 4 0 0 0 0-8zm0 6H47a2 2 0 1 1 1.4-3.427 1 1 0 0 0 1.677-.927A3 3 0 1 1 56 6a2.956 2.956 0 0 1-.075.646 1 1 0 0 0 1.677.927A2 2 0 1 1 59 11z" class="cls-1" data-name="Path 8593"/>
    </g>
</svg>
