<svg xmlns="http://www.w3.org/2000/svg" id="agronomy" width="60" height="60" viewBox="0 0 60 60">
    <defs>
        <style>
            .cls-1{fill:#fff}
        </style>
    </defs>
    <g id="Group_372" data-name="Group 372" transform="translate(16.946 7.607)">
        <g id="Group_371" data-name="Group 371">
            <path id="Path_8599" d="M170.274 88.04a1.172 1.172 0 0 0-.722-.771 8.332 8.332 0 0 0-1.546-.362 9.957 9.957 0 0 0 2.268-9.774 1.172 1.172 0 0 0-.722-.771 10.085 10.085 0 0 0-6.3.066 10.528 10.528 0 0 0 .292-2.5 9.954 9.954 0 0 0-5.313-8.868 1.171 1.171 0 0 0-1.056-.035 9.917 9.917 0 0 0-5.382 8.9 10.527 10.527 0 0 0 .294 2.508 10.084 10.084 0 0 0-6.316-.071 1.172 1.172 0 0 0-.722.771 9.957 9.957 0 0 0 2.268 9.774 8.331 8.331 0 0 0-1.546.362 1.172 1.172 0 0 0-.722.771 9.954 9.954 0 0 0 2.514 10.028 9.724 9.724 0 0 0 7.034 2.962 10.482 10.482 0 0 0 1.886-.171v7.668a1.172 1.172 0 1 0 2.344 0v-7.671a10.5 10.5 0 0 0 1.9.174 9.725 9.725 0 0 0 7.034-2.962 9.954 9.954 0 0 0 2.513-10.028zm-13.794 9.165a7.813 7.813 0 0 1-.172 1.3 7.732 7.732 0 0 1-9.18-9.185 7.858 7.858 0 0 1 4.026.19q.168.063.335.118a7.682 7.682 0 0 1 2.724 1.786 7.471 7.471 0 0 1 2.268 5.008zm0-10.907a7.809 7.809 0 0 1-.172 1.3 7.788 7.788 0 0 1-3.945-.157q-.254-.1-.5-.178a7.739 7.739 0 0 1-2.641-1.759 7.556 7.556 0 0 1-2.089-7.09 7.6 7.6 0 0 1 7.084 2.095l.049.051q.154.173.309.332a7.421 7.421 0 0 1 1.909 4.625zm1.188-5.88a7.968 7.968 0 0 1-1.434-1.185l-.167-.18a7.476 7.476 0 0 1-1.933-5.129 7.565 7.565 0 0 1 3.526-6.492 7.556 7.556 0 0 1 3.538 6.492 7.475 7.475 0 0 1-1.753 4.932c-.19.19-.367.382-.535.575a7.868 7.868 0 0 1-1.242.988zm1.163 5.5a7.419 7.419 0 0 1 1.811-4.906c.173-.172.346-.356.518-.555a7.563 7.563 0 0 1 7.031-2.047 7.556 7.556 0 0 1-2.091 7.09 7.739 7.739 0 0 1-2.636 1.758q-.255.082-.514.181a7.784 7.784 0 0 1-3.941.156 7.866 7.866 0 0 1-.182-1.651c.003-.005.003-.015.003-.025zm7.269 10.493a7.564 7.564 0 0 1-7.088 2.1 7.6 7.6 0 0 1 2.093-7.091 7.737 7.737 0 0 1 2.643-1.76q.25-.081.5-.178a7.79 7.79 0 0 1 3.938-.159 7.556 7.556 0 0 1-2.086 7.088z" class="cls-1" data-name="Path 8599" transform="translate(-144.606 -64.913)"/>
        </g>
    </g>
    <g id="Group_374" data-name="Group 374">
        <g id="Group_373" data-name="Group 373">
            <path id="Path_8600" d="M36.253.653A30.2 30.2 0 0 0 30 0 30 30 0 0 0 6.339 48.443a4.448 4.448 0 1 0 1.748-1.571A27.669 27.669 0 0 1 35.766 2.946a1.172 1.172 0 0 0 .487-2.293zM8.593 49.362a2.109 2.109 0 1 1-.618 1.492 2.1 2.1 0 0 1 .618-1.492z" class="cls-1" data-name="Path 8600"/>
        </g>
    </g>
    <g id="Group_376" data-name="Group 376" transform="translate(23.737 4.693)">
        <g id="Group_375" data-name="Group 375">
            <path id="Path_8601" d="M232.48 46.914a4.447 4.447 0 1 0-1.748 1.571 27.669 27.669 0 0 1-26.8 44.1 1.172 1.172 0 0 0-.411 2.307 30.28 30.28 0 0 0 5.3.466 30 30 0 0 0 23.659-48.444zM230.227 46a2.109 2.109 0 1 1 .618-1.492 2.1 2.1 0 0 1-.618 1.492z" class="cls-1" data-name="Path 8601" transform="translate(-202.556 -40.051)"/>
        </g>
    </g>
    <g id="Group_378" data-name="Group 378" transform="translate(18.089 55.589)">
        <g id="Group_377" data-name="Group 377">
            <path id="Path_8602" d="M155.97 474.447l-.443 1.085.439-1.086a1.172 1.172 0 0 0-.878 2.173l.036.014a1.172 1.172 0 0 0 .846-2.186z" class="cls-1" data-name="Path 8602" transform="translate(-154.355 -474.36)"/>
        </g>
    </g>
    <g id="Group_380" data-name="Group 380" transform="translate(39.601 2.081)">
        <g id="Group_379" data-name="Group 379">
            <path id="Path_8603" d="M339.557 17.846l-.021-.008a1.172 1.172 0 1 0-.87 2.176l.013.005a1.172 1.172 0 0 0 .878-2.173z" class="cls-1" data-name="Path 8603" transform="translate(-337.929 -17.754)"/>
        </g>
    </g>
</svg>
