<svg xmlns="http://www.w3.org/2000/svg" id="car-parts_2_" width="62" height="62" data-name="car-parts(2)" viewBox="0 0 62 62">
    <defs>
        <style>
            .cls-1{fill:#fff}
        </style>
    </defs>
    <g id="Group_370" data-name="Group 370">
        <g id="Group_369" data-name="Group 369">
            <path id="Path_8594" d="M59 0H21.441a3 3 0 0 0-2.847 2.051L18.279 3H15a3 3 0 0 0-3 3v1.3a6.986 6.986 0 0 0-2.619 11.946 11.047 11.047 0 0 0-4.219 7.008A7 7 0 0 0 7 40v6h4.505a15.8 15.8 0 0 0 1.714 4.123l-3.189 3.19 5.657 5.657 3.19-3.189A15.8 15.8 0 0 0 23 57.5V62h8v-4.505a15.8 15.8 0 0 0 4.123-1.714l3.19 3.189 5.657-5.657-3.189-3.19A15.8 15.8 0 0 0 42.5 46H47v-8h-4.505a15.8 15.8 0 0 0-1.714-4.123L43.657 31H56V16h3a3 3 0 0 0 3-3V3a3 3 0 0 0-3-3zM45 2a3 3 0 1 1-3 3 3 3 0 0 1 3-3zm-7 0h3.026A4.948 4.948 0 0 0 40 5a5.006 5.006 0 0 0 5 5 4.948 4.948 0 0 0 3-1.026V16H38zm-8.184 0a2.982 2.982 0 0 1-5.632 0zM9 14a5.01 5.01 0 1 1 2.227 4.156L11.2 18.1l-.028.016A5 5 0 0 1 9 14zm2.186 6.405a7.067 7.067 0 0 0 .814.3v7.406a7.015 7.015 0 0 0-4.775-2.1 9.069 9.069 0 0 1 3.961-5.606zM7 38a5 5 0 1 1 3.87-8.154l-.841.841 3.189 3.19A15.8 15.8 0 0 0 11.5 38H7zm34-7.171L38.226 33.6l.451.681a13.84 13.84 0 0 1 2.042 4.919l.163.8H45v4h-4.118l-.163.8a13.84 13.84 0 0 1-2.042 4.915l-.451.681 2.917 2.917-2.829 2.829-2.914-2.916-.681.451a13.84 13.84 0 0 1-4.919 2.042l-.8.163V60h-4v-4.118l-.8-.163a13.84 13.84 0 0 1-4.915-2.042l-.681-.451-2.917 2.917-2.829-2.829 2.916-2.914-.451-.681a13.84 13.84 0 0 1-2.042-4.919l-.163-.8H9v-4h4.118l.163-.8a13.84 13.84 0 0 1 2.042-4.915l.451-.681-2.917-2.917 2.829-2.829 2.914 2.916.681-.451a13.84 13.84 0 0 1 4.919-2.042l.8-.163V24h4v4.118l.8.163a13.84 13.84 0 0 1 4.915 2.042l.681.451 2.917-2.917L41 30.544zM54 29H42.284l-3.971-3.971-3.19 3.189A15.8 15.8 0 0 0 31 26.5V22h-8v4.505a15.8 15.8 0 0 0-4.123 1.714l-3.19-3.189L14 26.716V21a7 7 0 0 0 0-14V6a1 1 0 0 1 1-1h4.721l.771-2.316A1 1 0 0 1 21.441 2h.66a5 5 0 0 0 9.8 0H36v11.026A4.948 4.948 0 0 0 33 12a5 5 0 1 0 4.9 6H54zM36 17a3 3 0 1 1-3-3 3 3 0 0 1 3 3zm24-4a1 1 0 0 1-1 1h-3v-2h-2v4h-4V5a4.948 4.948 0 0 0-1.026-3H54v8h2V2h3a1 1 0 0 1 1 1z" class="cls-1" data-name="Path 8594"/>
            <path id="Path_8595" d="M35 240a3 3 0 1 0 3 3 3 3 0 0 0-3-3zm0 4a1 1 0 1 1 1-1 1 1 0 0 1-1 1z" class="cls-1" data-name="Path 8595" transform="translate(-28 -210)"/>
            <path id="Path_8596" d="M91 94a3 3 0 1 0-3-3 3 3 0 0 0 3 3zm0-4a1 1 0 1 1-1 1 1 1 0 0 1 1-1z" class="cls-1" data-name="Path 8596" transform="translate(-77 -77)"/>
            <path id="Path_8597" d="M146 256a10 10 0 1 0 5.341 18.455l-1.07-1.689a8.008 8.008 0 1 1 1.406-1.129l1.42 1.408A10 10 0 0 0 146 256z" class="cls-1" data-name="Path 8597" transform="translate(-119 -224)"/>
            <path id="Path_8598" d="M174 288a6 6 0 1 0 6 6 6.006 6.006 0 0 0-6-6zm0 10a4 4 0 1 1 4-4 4 4 0 0 1-4 4z" class="cls-1" data-name="Path 8598" transform="translate(-147 -252)"/>
        </g>
    </g>
</svg>
