<?xml version="1.0" encoding="utf-8"?>
<!-- Generator: Adobe Illustrator 19.1.0, SVG Export Plug-In . SVG Version: 6.00 Build 0)  -->
<svg version="1.1" id="Layer_1" xmlns="http://www.w3.org/2000/svg" xmlns:xlink="http://www.w3.org/1999/xlink" x="0px" y="0px"
	 viewBox="-278 367.6 54 59.4" style="enable-background:new -278 367.6 54 59.4;" xml:space="preserve">
<style type="text/css">
	.st0{fill:#F47C70;}
</style>
<g id="Data_mining" transform="translate(-5 -2)">
	<path id="Path_8579" class="st0" d="M-260,423.6h-11v-52h40v21c0,0.6,0.4,1,1,1s1-0.4,1-1v-22c0-0.6-0.4-1-1-1h-42
		c-0.6,0-1,0.4-1,1v54c0,0.6,0.4,1,1,1h12c0.6,0,1-0.4,1-1S-259.4,423.6-260,423.6z"/>
	<path id="Path_8580" class="st0" d="M-222.5,405.5L-222.5,405.5c0.4-0.4,0.4-1,0-1.4l-2.1-2.1l1.4-1.4c0.4-0.4,0.4-1,0-1.4
		l-4.2-4.2c-0.4-0.4-1-0.4-1.4,0l-1.4,1.4l-2.1-2.1c-0.4-0.4-1-0.4-1.4,0l0,0c-3.1-2.9-7.3-4.1-11.4-3.3l-4.3,0.9
		c-0.5,0.1-0.9,0.6-0.8,1.2c0.1,0.4,0.3,0.6,0.7,0.8l3.7,1.2c1.6,0.5,3.1,1.5,4.3,2.7l2.2,2.2c-0.4,0.4-0.4,1,0,1.4l2.1,2.1
		l-18.9,18.9c-1.6,1.5-1.6,4.1-0.1,5.7c1.5,1.6,4.1,1.6,5.7,0.1c0,0,0.1-0.1,0.1-0.1l18.9-18.8l2.1,2.1c0.4,0.4,1,0.4,1.4,0l2.2,2.2
		c1.2,1.2,2.1,2.7,2.7,4.3l1.2,3.7c0.1,0.4,0.5,0.7,0.9,0.7h0.1c0.5,0,0.8-0.4,0.9-0.8l0.9-4.3
		C-218.4,412.8-219.7,408.5-222.5,405.5z M-245.4,393l-0.1,0l0.6-0.1c3.5-0.7,7,0.3,9.6,2.7l-2.8,2.8l-2.2-2.2
		C-241.7,394.7-243.5,393.6-245.4,393z M-228.2,397l2.8,2.8l-0.7,0.7l-2.8-2.8L-228.2,397z M-252,426.4c-0.8,0.8-2,0.8-2.8,0
		c-0.8-0.8-0.8-2,0-2.8l18.8-18.9l2.8,2.8L-252,426.4z M-237.4,400.5l4.2-4.2l8.5,8.5l-4.2,4.2L-237.4,400.5z M-221.2,416.5
		l-0.1,0.6l0-0.1c-0.6-1.9-1.7-3.7-3.1-5.1l-2.2-2.2l2.8-2.8C-221.5,409.5-220.5,413-221.2,416.5L-221.2,416.5z"/>
	<path id="Path_8581" class="st0" d="M-230,425.6h-13.8c-0.6,0-1-0.4-1-1s0.4-1,1-1h12.8v-10c0-0.6,0.4-1,1-1s1,0.4,1,1v11
		C-229,425.2-229.4,425.6-230,425.6z"/>
	<path id="Path_8582" class="st0" d="M-234,386.6h-2v-9c0-0.6-0.4-1-1-1h-4c-0.6,0-1,0.4-1,1v9h-2v-12c0-0.6-0.4-1-1-1h-4
		c-0.6,0-1,0.4-1,1v12h-2v-9c0-0.6-0.4-1-1-1h-4c-0.6,0-1,0.4-1,1v9h-2v-5c0-0.6-0.4-1-1-1h-4c-0.6,0-1,0.4-1,1v5h-2
		c-0.6,0-1,0.4-1,1s0.4,1,1,1h34c0.6,0,1-0.4,1-1S-233.4,386.6-234,386.6z M-264,386.6v-4h2v4H-264z M-256,386.6v-8h2v8H-256z
		 M-248,386.6v-11h2v11H-248z M-240,386.6v-8h2v8H-240z"/>
	<path id="Path_8583" class="st0" d="M-264,397.6h-2c-0.6,0-1-0.4-1-1s0.4-1,1-1h2c0.6,0,1,0.4,1,1S-263.4,397.6-264,397.6z"/>
	<path id="Path_8584" class="st0" d="M-248,397.6h-12c-0.6,0-1-0.4-1-1s0.4-1,1-1h12c0.6,0,1,0.4,1,1S-247.4,397.6-248,397.6z"/>
	<path id="Path_8585" class="st0" d="M-243,403.6h-23c-0.6,0-1-0.4-1-1s0.4-1,1-1h23c0.6,0,1,0.4,1,1S-242.4,403.6-243,403.6z"/>
	<path id="Path_8586" class="st0" d="M-248,409.6h-18c-0.6,0-1-0.4-1-1s0.4-1,1-1h18c0.6,0,1,0.4,1,1S-247.4,409.6-248,409.6z"/>
	<path id="Path_8587" class="st0" d="M-254,415.6h-12c-0.6,0-1-0.4-1-1s0.4-1,1-1h12c0.6,0,1,0.4,1,1S-253.4,415.6-254,415.6z"/>
</g>
</svg>
