<svg xmlns="http://www.w3.org/2000/svg" id="facebook-logo" width="14.793" height="14.793" viewBox="0 0 14.793 14.793">
    <defs>
        <style>
            .cls-1{fill:#3b5998}
        </style>
    </defs>
    <path id="Facebook__x28_alt_x29_" d="M14.793 2.466A2.555 2.555 0 0 0 12.328 0H2.466A2.555 2.555 0 0 0 0 2.466v9.862a2.555 2.555 0 0 0 2.466 2.466H7.4V9.2H5.589V6.739H7.4v-.96a3.034 3.034 0 0 1 2.77-3.149h1.993V5.1H10.17c-.218 0-.473.265-.473.661v.982h2.466V9.2H9.7v5.589h2.63a2.555 2.555 0 0 0 2.466-2.466z" class="cls-1"/>
</svg>
