<?xml version="1.0" encoding="utf-8"?>
<!-- Generator: Adobe Illustrator 19.1.0, SVG Export Plug-In . SVG Version: 6.00 Build 0)  -->
<svg version="1.1" id="Layer_1" xmlns="http://www.w3.org/2000/svg" xmlns:xlink="http://www.w3.org/1999/xlink" x="0px" y="0px"
	 viewBox="-272 369.9 66 55.1" style="enable-background:new -272 369.9 66 55.1;" xml:space="preserve">
<style type="text/css">
	.st0{fill:#F47C70;}
</style>
<g id="house_2_" transform="translate(0 -38.175)">
	<path id="Path_8588" class="st0" d="M-207.7,429.9c0.5,0.4,1.1,0.3,1.5-0.2c0.1-0.2,0.2-0.4,0.2-0.7v-5.7c0-0.3-0.1-0.6-0.4-0.8
		l-17.4-13.7c-1.2-1-2.9-1-4.1,0l-6.6,5.2v-2c0-0.6-0.5-1.1-1.1-1.1l0,0h-4.6c-0.6,0-1.1,0.5-1.1,1.1l0,0v7.3l-4.2,3.3
		c-0.3,0.2-0.4,0.5-0.4,0.8v5.7c0,0.6,0.5,1.1,1.1,1.1c0.2,0,0.5-0.1,0.7-0.2l0.6-0.4v10.4l-10-7.9c-1.2-1-2.9-1-4.1,0l-14,11
		c-0.3,0.2-0.4,0.5-0.4,0.8v5.7c0,0.6,0.5,1.1,1.1,1.1c0.2,0,0.5-0.1,0.7-0.2l0.6-0.4V461h-1.2c-0.6,0-1.1,0.5-1.1,1.1
		s0.5,1.1,1.1,1.1h63.9c0.6,0,1.1-0.5,1.1-1.1s-0.5-1.1-1.1-1.1h-1.2v-31.6L-207.7,429.9L-207.7,429.9z M-239.1,413h2.4v2.6
		l-2.4,1.9V413z M-243.6,423.9l17-13.4c0.4-0.3,1.1-0.3,1.5,0l17,13.4v3l-17.1-13.5c-0.4-0.3-0.9-0.3-1.3,0l-17.1,13.5V423.9z
		 M-269.9,444.4l13.6-10.7c0.4-0.3,1.1-0.3,1.5,0l11.3,8.9v3l-11.4-9c-0.4-0.3-0.9-0.3-1.3,0l-13.7,10.8
		C-269.9,447.4-269.9,444.4-269.9,444.4z M-267.6,448.3l12-9.5l12,9.5V461h-4.7v-12.6c0-0.6-0.5-1.1-1.1-1.1l0,0h-12.5
		c-0.6,0-1.1,0.5-1.1,1.1l0,0V461h-4.7L-267.6,448.3z M-260.7,454h10.4v2.4h-10.4V454z M-250.3,451.9h-10.4v-2.4h10.4V451.9z
		 M-260.7,458.6h10.4v2.4h-10.4V458.6z M-229.8,453.1L-229.8,453.1c-0.7,0-1.1,0.5-1.1,1.1s0.5,1.1,1.1,1.1l0,0h0.1v5.8h-4.7v-13.8
		h4.7V453.1z M-210.4,461h-17.2v-14.9c0-0.6-0.5-1.1-1.1-1.1l0,0h-6.8c-0.6,0-1.1,0.5-1.1,1.1l0,0V461h-4.7v-33.3l15.5-12.2
		l15.5,12.2V461z"/>
	<path id="Path_8589" class="st0" d="M-223,456.3h6.8c0.6,0,1.1-0.5,1.1-1.1l0,0v-9.1c0-0.6-0.5-1.1-1.1-1.1l0,0h-6.8
		c-0.6,0-1.1,0.5-1.1,1.1l0,0v9.1C-224.1,455.9-223.6,456.3-223,456.3L-223,456.3z M-222,454.2v-3.6h4.7v3.6H-222z M-217.3,447.2
		v1.3h-4.7v-1.3H-217.3z"/>
	<path id="Path_8590" class="st0" d="M-223,440.4h6.8c0.6,0,1.1-0.5,1.1-1.1l0,0v-9.1c0-0.6-0.5-1.1-1.1-1.1l0,0h-6.8
		c-0.6,0-1.1,0.5-1.1,1.1l0,0v9.1C-224.1,439.9-223.6,440.4-223,440.4L-223,440.4z M-222,438.2v-3.6h4.7v3.6H-222z M-217.3,431.2
		v1.3h-4.7v-1.3H-217.3z"/>
	<path id="Path_8591" class="st0" d="M-228.7,429.1h-6.8c-0.6,0-1.1,0.5-1.1,1.1l0,0v9.1c0,0.6,0.5,1.1,1.1,1.1l0,0h6.8
		c0.6,0,1.1-0.5,1.1-1.1v-9.1C-227.7,429.6-228.1,429.1-228.7,429.1L-228.7,429.1L-228.7,429.1z M-229.8,431.2v1.3h-4.7v-1.3H-229.8
		z M-234.5,438.2v-3.6h4.7v3.6H-234.5z"/>
</g>
</svg>
