<svg xmlns="http://www.w3.org/2000/svg" id="linkedin-logo_1_" width="14.897" height="14.897" data-name="linkedin-logo(1)" viewBox="0 0 14.897 14.897">
    <defs>
        <style>
            .cls-1{fill:#0077b7}
        </style>
    </defs>
    <g id="post-linkedin">
        <path id="Path_8604" d="M13.407 0H1.49A1.494 1.494 0 0 0 0 1.49v11.917A1.494 1.494 0 0 0 1.49 14.9h11.917a1.494 1.494 0 0 0 1.49-1.49V1.49A1.494 1.494 0 0 0 13.407 0zM4.469 12.662H2.234v-6.7h2.235zm-1.117-7.97a1.341 1.341 0 1 1 1.34-1.34 1.335 1.335 0 0 1-1.34 1.34zm9.31 7.97h-2.234V8.715a1.117 1.117 0 0 0-2.234 0v3.948H5.959v-6.7h2.234v.894a2.406 2.406 0 0 1 1.862-1.047 2.639 2.639 0 0 1 2.607 2.607z" class="cls-1" data-name="Path 8604"/>
    </g>
</svg>
