<svg xmlns="http://www.w3.org/2000/svg" width="28" height="62" viewBox="0 0 28 62">
    <defs>
        <style>
            .cls-1{fill:#fff}
        </style>
    </defs>
    <g id="refreshment" transform="translate(-18 -1)">
        <path id="Path_8606" d="M46 20v-2.789a6.987 6.987 0 0 0-3.117-5.824l-1.824-1.216A2.983 2.983 0 0 0 42 8V4a3 3 0 0 0-3-3H25a3 3 0 0 0-3 3v4a2.983 2.983 0 0 0 .941 2.171l-1.824 1.216A6.986 6.986 0 0 0 18 17.211V20a4.982 4.982 0 0 0 2.031 4 4.954 4.954 0 0 0 0 8 4.954 4.954 0 0 0 0 8 4.954 4.954 0 0 0 0 8A4.982 4.982 0 0 0 18 52v6a5.006 5.006 0 0 0 5 5h18a5.006 5.006 0 0 0 5-5v-6a4.982 4.982 0 0 0-2.031-4 4.954 4.954 0 0 0 0-8 4.954 4.954 0 0 0 0-8 4.954 4.954 0 0 0 0-8A4.982 4.982 0 0 0 46 20zM24 4a1 1 0 0 1 1-1h14a1 1 0 0 1 1 1v4a1 1 0 0 1-1 1H25a1 1 0 0 1-1-1zm-4 32a3 3 0 0 1 3-3h1v6h-1a3 3 0 0 1-3-3zm24 16v6a3 3 0 0 1-3 3H23a3 3 0 0 1-3-3v-6a3 3 0 0 1 3-3h18a3 3 0 0 1 3 3zm0-8a3 3 0 0 1-3 3H23a3 3 0 0 1 0-6h1v1a3 3 0 0 0 3 3h10a3 3 0 0 0 3-3v-1h1a3 3 0 0 1 3 3zm-18-2V30a1 1 0 0 1 1-1h10a1 1 0 0 1 1 1v12a1 1 0 0 1-1 1H27a1 1 0 0 1-1-1zm18-6a3 3 0 0 1-3 3h-1v-6h1a3 3 0 0 1 3 3zm0-8a3 3 0 0 1-3 3h-1v-1a3 3 0 0 0-3-3H27a3 3 0 0 0-3 3v1h-1a3 3 0 0 1 0-6h18a3 3 0 0 1 3 3zm0-8a3 3 0 0 1-3 3H23a3 3 0 0 1-3-3v-2.789a4.989 4.989 0 0 1 2.227-4.16L25.3 11h13.4l3.076 2.051A4.99 4.99 0 0 1 44 17.211z" class="cls-1" data-name="Path 8606"/>
        <path id="Path_8607" d="M32 41a4 4 0 0 0 3.2-6.4L32 30.333 28.8 34.6A4 4 0 0 0 32 41zm-1.6-5.2l1.6-2.133 1.6 2.133A2.026 2.026 0 0 1 34 37a2 2 0 0 1-4 0 2.027 2.027 0 0 1 .4-1.2z" class="cls-1" data-name="Path 8607"/>
        <path id="Path_8608" d="M22 55v2a2 2 0 0 0 2 2h4v-2h-4v-2z" class="cls-1" data-name="Path 8608"/>
        <path id="Path_8609" d="M30 57h2v2h-2z" class="cls-1" data-name="Path 8609"/>
        <path id="Path_8610" d="M32 19h2v2h-2z" class="cls-1" data-name="Path 8610"/>
        <path id="Path_8611" d="M40 19h-4v2h6v-4h-2z" class="cls-1" data-name="Path 8611"/>
    </g>
</svg>
