<?xml version="1.0" encoding="utf-8"?>
<!-- Generator: Adobe Illustrator 19.1.0, SVG Export Plug-In . SVG Version: 6.00 Build 0)  -->
<svg version="1.1" id="Layer_1" xmlns="http://www.w3.org/2000/svg" xmlns:xlink="http://www.w3.org/1999/xlink" x="0px" y="0px"
	 viewBox="-275 367 60 60" style="enable-background:new -275 367 60 60;" xml:space="preserve">
<style type="text/css">
	.st0{fill:#FFFFFF;}
</style>
<g id="presentation">
	<g id="presentation-training-teaching-meeting-discussion_1_">
		<path id="Path_8572" class="st0" d="M-265.6,383.9c0,3.1,2.5,5.6,5.6,5.6s5.6-2.5,5.6-5.6s-2.5-5.6-5.6-5.6
			C-263.1,378.3-265.6,380.8-265.6,383.9z M-256.2,383.9c0,2.1-1.7,3.8-3.8,3.8s-3.8-1.7-3.8-3.8s1.7-3.8,3.8-3.8
			C-257.9,380.1-256.3,381.8-256.2,383.9z"/>
		<path id="Path_8573" class="st0" d="M-246.2,393.9l6.6-6.6c0.4-0.4,0.4-1,0-1.3c0,0,0,0,0,0l-2.8-2.8c-0.3-0.3-0.9-0.4-1.3,0
			l-6.5,5.5l-6.3,2.7h-11.1c-0.3,0-0.5,0.1-0.7,0.3l-6.6,7.5c-0.2,0.3-0.3,0.6-0.2,0.9l2.8,8.4c0.2,0.5,0.7,0.8,1.2,0.6
			c0,0,0.1,0,0.1-0.1l3.8-1.9c0.3-0.2,0.5-0.5,0.5-0.8v15.9c0,2.6,2.1,4.7,4.7,4.7h7.5c0.5,0,0.9-0.4,0.9-0.9c0,0,0,0,0,0v-28.5
			l7-3.5C-246.4,394-246.3,394-246.2,393.9z M-266.6,406.4c0-0.1,0-0.2-0.1-0.3l-1.7-4.2l1.7-2.2L-266.6,406.4z M-254.8,396.2
			c-0.3,0.2-0.5,0.5-0.5,0.8v28.1h-3.8v-15c0-0.5-0.5-0.9-1-0.9c-0.5,0-0.9,0.4-0.9,0.9v15h-0.9c-1.6,0-2.8-1.3-2.8-2.8V397
			c0-0.5-0.4-0.9-0.9-0.9c-0.3,0-0.6,0.1-0.7,0.4l-3.8,4.7c-0.2,0.3-0.3,0.6-0.1,0.9l1.6,3.9l-2,1l-2.3-6.9l5.9-6.8h10.8
			c0.1,0,0.3,0,0.4-0.1l6.6-2.8c0.1,0,0.2-0.1,0.2-0.1l5.9-5.1l1.5,1.5l-5.8,5.8L-254.8,396.2z"/>
		<path id="Path_8574" class="st0" d="M-261.9,397h0.9v7.5h1.9V397h0.9v-1.9h-3.8V397z"/>
		<path id="Path_8575" class="st0" d="M-215,413.9c0-3.1-2.5-5.6-5.6-5.6c-1.9,0-3.7,0.9-4.7,2.5c-1.7-2.6-5.2-3.3-7.8-1.6
			c-0.6,0.4-1.2,1-1.6,1.6c-1.7-2.6-5.2-3.3-7.8-1.6c-2.6,1.7-3.3,5.2-1.6,7.8c0.4,0.6,1,1.2,1.6,1.6c-1.6,1-2.5,2.8-2.5,4.7v3.8
			h1.9v-3.8c0-2.1,1.7-3.8,3.8-3.8s3.8,1.7,3.8,3.8l0,0v3.8h1.9v-3.8c0-2.1,1.7-3.8,3.8-3.8s3.8,1.7,3.8,3.8l0,0v3.8h1.9v-3.8
			c0-2.1,1.7-3.8,3.8-3.8s3.8,1.7,3.8,3.8l0,0v3.8h1.9v-3.8c0-1.9-0.9-3.6-2.5-4.7C-215.9,417.5-215,415.8-215,413.9z M-230,410.1
			c2.1,0,3.8,1.7,3.8,3.8s-1.7,3.8-3.8,3.8s-3.8-1.7-3.8-3.8C-233.7,411.8-232.1,410.1-230,410.1z M-243.1,413.9
			c0-2.1,1.7-3.8,3.8-3.8s3.8,1.7,3.8,3.8s-1.7,3.8-3.8,3.8C-241.4,417.6-243.1,415.9-243.1,413.9z M-234.7,420.1
			c-0.4-0.6-1-1.2-1.6-1.6c0.6-0.4,1.2-1,1.6-1.6c0.4,0.6,1,1.2,1.6,1.6C-233.7,419-234.3,419.5-234.7,420.1z M-225.3,420.1
			c-0.4-0.6-1-1.2-1.6-1.6c0.6-0.4,1.2-1,1.6-1.6c0.4,0.6,1,1.2,1.6,1.6C-224.4,419-224.9,419.5-225.3,420.1z M-220.6,417.6
			c-2.1,0-3.8-1.7-3.8-3.8c0-2.1,1.7-3.8,3.8-3.8c2.1,0,3.8,1.7,3.8,3.8l0,0C-216.9,415.9-218.6,417.6-220.6,417.6L-220.6,417.6z"/>
		<path id="Path_8576" class="st0" d="M-215.9,367h-34.7c-0.5,0-0.9,0.4-0.9,0.9c0,0,0,0,0,0v17.8h1.9v-16.9h32.8v25.3
			c0,1.6-1.3,2.8-2.8,2.8h-29.1v1.9h29.1c2.6,0,4.7-2.1,4.7-4.7v-26.2C-215,367.4-215.4,367-215.9,367
			C-215.9,367-215.9,367-215.9,367z"/>
		<path id="Path_8577" class="st0" d="M-235.6,371.7h-9.4c-0.5,0-0.9,0.4-0.9,0.9c0,0,0,0,0,0v3.8c0,0.5,0.4,0.9,0.9,0.9
			c0,0,0,0,0,0h9.4c0.5,0,0.9-0.4,0.9-0.9c0,0,0,0,0,0v-0.9h2.8v0.9c0,0.5,0.4,0.9,0.9,0.9c0,0,0,0,0,0h3.8v2.8h-3.8
			c-0.5,0-0.9,0.4-0.9,0.9c0,0,0,0,0,0v3.8c0,0.5,0.4,0.9,0.9,0.9c0,0,0,0,0,0h3.8v2.8h-3.8c-0.5,0-0.9,0.4-0.9,0.9c0,0,0,0,0,0v3.8
			c0,0.5,0.4,0.9,0.9,0.9h9.4c0.5,0,0.9-0.4,0.9-0.9c0,0,0,0,0,0v-3.8c0-0.5-0.4-0.9-0.9-0.9c0,0,0,0,0,0h-3.8v-2.8h3.8
			c0.5,0,0.9-0.4,0.9-0.9c0,0,0,0,0,0v-3.8c0-0.5-0.4-0.9-0.9-0.9c0,0,0,0,0,0h-3.8v-2.8h3.8c0.5,0,0.9-0.4,0.9-0.9c0,0,0,0,0,0
			v-3.7c0-0.5-0.4-0.9-0.9-0.9c0,0,0,0,0,0h-9.4c-0.5,0-0.9,0.4-0.9,0.9c0,0,0,0,0,0v0.9h-2.8v-0.9
			C-234.7,372.1-235.1,371.7-235.6,371.7C-235.6,371.7-235.6,371.7-235.6,371.7z M-236.6,375.4h-7.5v-1.9h7.5V375.4z M-222.5,392.3
			h-7.5v-1.9h7.5V392.3z M-222.5,383.9h-7.5V382h7.5V383.9z M-230,373.6h7.5v1.9h-7.5V373.6z"/>
		<path id="Rectangle_1262" class="st0" d="M-245,379h10v2h-10V379z"/>
		<path id="Rectangle_1263" class="st0" d="M-238,383h3v2h-3V383z"/>
		<path id="Rectangle_1264" class="st0" d="M-238,387h3v2h-3V387z"/>
		<path id="Rectangle_1265" class="st0" d="M-240,390h5v2h-5V390z"/>
		<path id="Path_8578" class="st0" d="M-271.2,376.4h0.5l2.5,3.4c0.2,0.2,0.5,0.4,0.8,0.4c0.5,0,0.9-0.4,0.9-0.9v-2.8h5.6
			c1.6,0,2.8-1.3,2.8-2.8v-3.7c0-1.6-1.3-2.8-2.8-2.8h-10.3c-1.6,0-2.8,1.3-2.8,2.8v3.8C-274.1,375.1-272.8,376.4-271.2,376.4z
			 M-272.2,369.8c0-0.5,0.4-0.9,0.9-0.9h10.3c0.5,0,0.9,0.4,0.9,0.9v3.8c0,0.5-0.4,0.9-0.9,0.9h-6.6c-0.5,0-0.9,0.4-0.9,0.9
			c0,0,0,0,0,0v0.9l-1.1-1.5c-0.2-0.2-0.5-0.4-0.8-0.4h-0.9c-0.5,0-0.9-0.4-0.9-0.9l0,0V369.8z"/>
		<path id="Rectangle_1266" class="st0" d="M-270,371h8v2h-8V371z"/>
	</g>
</g>
</svg>
