<?xml version="1.0" encoding="utf-8"?>
<!-- Generator: Adobe Illustrator 19.1.0, SVG Export Plug-In . SVG Version: 6.00 Build 0)  -->
<svg version="1.1" id="Layer_1" xmlns="http://www.w3.org/2000/svg" xmlns:xlink="http://www.w3.org/1999/xlink" x="0px" y="0px"
	 viewBox="-282 366 46.7 61" style="enable-background:new -282 366 46.7 61;" xml:space="preserve">
<style type="text/css">
	.st0{fill:#FFFFFF;}
</style>
<g id="tax" transform="translate(-59.858)">
	<g id="Group_320" transform="translate(59.858)">
		<g id="Group_319">
			<path id="Path_8554" class="st0" d="M-238.3,366H-279c-1.7,0-3,1.3-3,3v55c0,1.7,1.3,3,3,3h31.6c0.3,0,0.5-0.1,0.7-0.3l11.2-11.2
				c0.2-0.2,0.3-0.4,0.3-0.7V369C-235.3,367.3-236.6,366-238.3,366z M-246.5,423.7v-6.9c0-0.6,0.5-1.1,1.1-1.1h6.9L-246.5,423.7z
				 M-237.2,413.9h-8.2c-1.7,0-3,1.3-3,3v8.2H-279c-0.6,0-1.1-0.5-1.1-1.1v-55c0-0.6,0.5-1.1,1.1-1.1h40.7c0.6,0,1.1,0.5,1.1,1.1
				L-237.2,413.9z"/>
		</g>
	</g>
	<g id="Group_322" transform="translate(68.008 8.15)">
		<g id="Group_321">
			<path id="Path_8555" class="st0" d="M-272.9,366h-8.1c-0.5,0-1,0.4-1,1s0.4,1,1,1h3.1v9.2c0,0.5,0.4,1,1,1s1-0.4,1-1v-9.2h3.1
				c0.5,0,1-0.4,1-1S-272.4,366-272.9,366z"/>
		</g>
	</g>
	<g id="Group_324" transform="translate(77.177 8.15)">
		<g id="Group_323">
			<path id="Path_8556" class="st0" d="M-272,376.9l-2.8-9.5c-0.2-0.8-1-1.4-1.9-1.4h-0.5c-0.9,0-1.6,0.6-1.9,1.4l-2.8,9.5
				c-0.2,0.5,0.1,1,0.6,1.2s1-0.1,1.2-0.6l0.4-1.4h5.5l0.4,1.4c0.2,0.5,0.7,0.8,1.2,0.6S-271.8,377.4-272,376.9L-272,376.9z
				 M-279.1,374.2l1.9-6.2c0,0,0,0,0.1,0h0.5c0,0,0.1,0,0.1,0l1.9,6.2H-279.1z"/>
		</g>
	</g>
	<g id="Group_326" transform="translate(88.384 8.15)">
		<g id="Group_325">
			<path id="Path_8557" class="st0" d="M-273.1,376.6l-3.2-4.5l3.2-4.5c0.3-0.4,0.2-1-0.2-1.3c-0.4-0.3-1-0.2-1.3,0.2l-2.8,4l-2.8-4
				c-0.3-0.4-0.9-0.5-1.3-0.2c-0.4,0.3-0.5,0.9-0.2,1.3l3.2,4.5l-3.2,4.5c-0.3,0.4-0.2,1,0.2,1.3c0.4,0.3,1,0.2,1.3-0.2l2.8-4l2.8,4
				c0.3,0.4,0.9,0.5,1.3,0.2C-272.9,377.6-272.8,377-273.1,376.6L-273.1,376.6z"/>
		</g>
	</g>
	<g id="Group_328" transform="translate(65.971 25.47)">
		<g id="Group_327">
			<path id="Path_8558" class="st0" d="M-279,366h-2c-0.5,0-1,0.4-1,1s0.4,1,1,1h2c0.5,0,1-0.4,1-1S-278.5,366-279,366z"/>
		</g>
	</g>
	<g id="Group_330" transform="translate(65.971 29.545)">
		<g id="Group_329">
			<path id="Path_8559" class="st0" d="M-279,366h-2c-0.5,0-1,0.4-1,1s0.4,1,1,1h2c0.5,0,1-0.4,1-1S-278.5,366-279,366z"/>
		</g>
	</g>
	<g id="Group_332" transform="translate(65.971 33.62)">
		<g id="Group_331">
			<path id="Path_8560" class="st0" d="M-279,366h-2c-0.5,0-1,0.4-1,1c0,0.5,0.4,1,1,1h2c0.5,0,1-0.4,1-1
				C-278.1,366.4-278.5,366-279,366z"/>
		</g>
	</g>
	<g id="Group_334" transform="translate(96.534 25.47)">
		<g id="Group_333">
			<path id="Path_8561" class="st0" d="M-279,366h-2c-0.5,0-1,0.4-1,1s0.4,1,1,1h2c0.5,0,1-0.4,1-1S-278.5,366-279,366z"/>
		</g>
	</g>
	<g id="Group_336" transform="translate(96.534 29.545)">
		<g id="Group_335">
			<path id="Path_8562" class="st0" d="M-279,366h-2c-0.5,0-1,0.4-1,1s0.4,1,1,1h2c0.5,0,1-0.4,1-1S-278.5,366-279,366z"/>
		</g>
	</g>
	<g id="Group_338" transform="translate(96.534 33.62)">
		<g id="Group_337">
			<path id="Path_8563" class="st0" d="M-279,366h-2c-0.5,0-1,0.4-1,1c0,0.5,0.4,1,1,1h2c0.5,0,1-0.4,1-1
				C-278.1,366.4-278.5,366-279,366z"/>
		</g>
	</g>
	<g id="Group_340" transform="translate(72.083 25.47)">
		<g id="Group_339">
			<path id="Path_8564" class="st0" d="M-268.8,366H-281c-0.5,0-1,0.4-1,1s0.4,1,1,1h12.2c0.5,0,1-0.4,1-1S-268.3,366-268.8,366z"/>
		</g>
	</g>
	<g id="Group_342" transform="translate(72.083 29.545)">
		<g id="Group_341">
			<path id="Path_8565" class="st0" d="M-272.9,366h-8.1c-0.5,0-1,0.4-1,1s0.4,1,1,1l0,0h8.1c0.5,0,1-0.4,1-1S-272.4,366-272.9,366
				L-272.9,366z"/>
		</g>
	</g>
	<g id="Group_344" transform="translate(72.083 33.62)">
		<g id="Group_343">
			<path id="Path_8566" class="st0" d="M-268.8,366H-281c-0.5,0-1,0.4-1,1c0,0.5,0.4,1,1,1h12.2c0.5,0,1-0.4,1-1
				C-267.9,366.4-268.3,366-268.8,366z"/>
		</g>
	</g>
	<g id="Group_346" transform="translate(65.971 39.733)">
		<g id="Group_345">
			<path id="Path_8567" class="st0" d="M-277,372.4v-3.3c0.7,0.2,1.1,0.7,1.1,1.1c0,0.5,0.4,1,1,1s1-0.4,1-1
				c-0.1-1.6-1.4-2.9-3.1-3.1V367c0-0.5-0.4-1-1-1s-1,0.4-1,1v0.2c-1.6,0.2-2.9,1.5-3.1,3.1c0,2.1,1.7,3,3.1,3.5v3.3
				c-0.7-0.2-1.1-0.7-1.1-1.1c0-0.5-0.4-1-1-1c-0.5,0-1,0.4-1,1c0.1,1.6,1.4,2.9,3.1,3.1v0.2c0,0.5,0.4,1,1,1s1-0.4,1-1V379
				c1.6-0.2,2.9-1.5,3.1-3.1C-274,373.8-275.7,372.9-277,372.4z M-278.9,371.7c-1-0.5-1.1-0.9-1.1-1.5c0-0.4,0.4-0.9,1.1-1.1V371.7z
				 M-277,377.1v-2.6c1,0.5,1.1,0.9,1.1,1.5C-275.9,376.4-276.3,376.8-277,377.1L-277,377.1z"/>
		</g>
	</g>
	<g id="Group_348" transform="translate(76.159 41.77)">
		<g id="Group_347">
			<path id="Path_8568" class="st0" d="M-273.9,366h-7.1c-0.5,0-1,0.4-1,1c0,0.5,0.4,1,1,1h7.1c0.5,0,1-0.4,1-1
				C-273,366.4-273.4,366-273.9,366z"/>
		</g>
	</g>
	<g id="Group_350" transform="translate(76.159 49.921)">
		<g id="Group_349">
			<path id="Path_8569" class="st0" d="M-277,366h-4.1c-0.5,0-1,0.4-1,1c0,0.5,0.4,1,1,1h4.1c0.5,0,1-0.4,1-1
				C-276,366.4-276.4,366-277,366z"/>
		</g>
	</g>
	<g id="Group_352" transform="translate(84.309 49.921)">
		<g id="Group_351">
			<path id="Path_8570" class="st0" d="M-279,366h-2c-0.5,0-1,0.4-1,1c0,0.5,0.4,1,1,1h2c0.5,0,1-0.4,1-1
				C-278.1,366.4-278.5,366-279,366z"/>
		</g>
	</g>
	<g id="Group_354" transform="translate(76.159 45.845)">
		<g id="Group_353">
			<path id="Path_8571" class="st0" d="M-267.8,366H-281c-0.5,0-1,0.4-1,1c0,0.5,0.4,1,1,1h13.2c0.5,0,1-0.4,1-1
				C-266.8,366.4-267.3,366-267.8,366z"/>
		</g>
	</g>
	<g id="Group_356" transform="translate(84.309 29.545)">
		<g id="Group_355">
			<circle id="Ellipse_20" class="st0" cx="-281" cy="367" r="1"/>
		</g>
	</g>
	<g id="Group_358" transform="translate(88.384 29.545)">
		<g id="Group_357">
			<circle id="Ellipse_21" class="st0" cx="-281" cy="367" r="1"/>
		</g>
	</g>
	<g id="Group_360" transform="translate(92.459 29.545)">
		<g id="Group_359">
			<circle id="Ellipse_22" class="st0" cx="-281" cy="367" r="1"/>
		</g>
	</g>
	<g id="Group_362" transform="translate(88.384 25.47)">
		<g id="Group_361">
			<circle id="Ellipse_23" class="st0" cx="-281" cy="367" r="1"/>
		</g>
	</g>
	<g id="Group_364" transform="translate(92.459 25.47)">
		<g id="Group_363">
			<circle id="Ellipse_24" class="st0" cx="-281" cy="367" r="1"/>
		</g>
	</g>
	<g id="Group_366" transform="translate(88.384 33.62)">
		<g id="Group_365">
			<circle id="Ellipse_25" class="st0" cx="-281" cy="367" r="1"/>
		</g>
	</g>
	<g id="Group_368" transform="translate(92.459 33.62)">
		<g id="Group_367">
			<circle id="Ellipse_26" class="st0" cx="-281" cy="367" r="1"/>
		</g>
	</g>
</g>
</svg>
