<svg xmlns="http://www.w3.org/2000/svg" width="17.965" height="17.966" viewBox="0 0 17.965 17.966">
    <defs>
        <style>
            .cls-1{fill:#3a3a3a}.cls-2{filter:url(#Path_4)}
        </style>
        <filter id="Path_4" width="17.965" height="17.966" x="0" y="0" filterUnits="userSpaceOnUse">
            <feOffset dy="1"/>
            <feGaussianBlur result="blur" stdDeviation=".5"/>
            <feFlood flood-color="#040926" flood-opacity=".169"/>
            <feComposite in2="blur" operator="in"/>
            <feComposite in="SourceGraphic"/>
        </filter>
    </defs>
    <g id="telephone-handle-silhouette" class="cls-2">
        <path id="Path_4-2" d="M14.943 11.6q-.063-.191-.808-.563-.2-.117-.574-.319t-.675-.372q-.3-.17-.569-.329-.042-.032-.266-.186a2.987 2.987 0 0 0-.377-.229.7.7 0 0 0-.3-.074.882.882 0 0 0-.531.3 5.175 5.175 0 0 0-.584.659 6.409 6.409 0 0 1-.563.659.81.81 0 0 1-.489.3.723.723 0 0 1-.239-.053c-.1-.035-.168-.066-.218-.09s-.134-.074-.255-.149-.188-.115-.2-.122a11.17 11.17 0 0 1-2.5-1.849 11.164 11.164 0 0 1-1.849-2.5q-.011-.021-.122-.2t-.149-.255a2.3 2.3 0 0 1-.09-.218.719.719 0 0 1-.053-.239.81.81 0 0 1 .3-.489 6.4 6.4 0 0 1 .659-.563 5.173 5.173 0 0 0 .659-.584.882.882 0 0 0 .3-.531.694.694 0 0 0-.074-.3 2.954 2.954 0 0 0-.229-.377q-.154-.223-.186-.266-.159-.266-.329-.569t-.372-.675q-.2-.372-.319-.574Q3.571.1 3.379.032A.6.6 0 0 0 3.156 0a3.5 3.5 0 0 0-.749.106 4.209 4.209 0 0 0-.728.224 2.849 2.849 0 0 0-1.127 1.3A4.121 4.121 0 0 0 .01 3.6a4.1 4.1 0 0 0 .037.558 4.586 4.586 0 0 0 .133.611q.1.34.154.5t.218.59q.159.425.191.521a9.628 9.628 0 0 0 .882 1.86 15.76 15.76 0 0 0 2.29 2.812 15.767 15.767 0 0 0 2.812 2.298 9.642 9.642 0 0 0 1.86.882q.1.032.521.191t.59.218q.165.059.5.154a4.626 4.626 0 0 0 .611.133 3.943 3.943 0 0 0 2.535-.505 2.848 2.848 0 0 0 1.3-1.127 4.186 4.186 0 0 0 .223-.728 3.494 3.494 0 0 0 .106-.749.593.593 0 0 0-.03-.219z" class="cls-1" data-name="Path 4" transform="translate(1.49 .5)"/>
    </g>
</svg>
