<svg xmlns="http://www.w3.org/2000/svg" id="twitter-logo-on-black-background" width="14.897" height="14.897" viewBox="0 0 14.897 14.897">
    <defs>
        <style>
            .cls-1{fill:#03a9f4}
        </style>
    </defs>
    <g id="post-twitter">
        <path id="Path_8605" d="M13.407 0H1.49A1.494 1.494 0 0 0 0 1.49v11.917A1.494 1.494 0 0 0 1.49 14.9h11.917a1.494 1.494 0 0 0 1.49-1.49V1.49A1.494 1.494 0 0 0 13.407 0zm-1.713 5.437c-.074 3.426-2.234 5.81-5.512 5.959a5.421 5.421 0 0 1-3.2-.894 3.954 3.954 0 0 0 2.9-.819 2.012 2.012 0 0 1-1.86-1.415 3 3 0 0 0 .819 0 2.029 2.029 0 0 1-1.564-2.011 1.5 1.5 0 0 0 .823.223 2.2 2.2 0 0 1-.6-2.68 5.9 5.9 0 0 0 4.1 2.084A2.013 2.013 0 0 1 11.023 4.1a5.018 5.018 0 0 0 1.267-.45 2.106 2.106 0 0 1-.819 1.117 4.27 4.27 0 0 0 1.043-.3c-.075.374-.448.672-.82.97z" class="cls-1" data-name="Path 8605"/>
    </g>
</svg>
